# xmcd CD database file
#
# Track frame offsets:
#	150
#	18412
#	48540
#	66025
#	91512
#	113053
#	129391
#	146747
#	172408
#	193404
#	216708
#	235524
#	256479
#	282289
#	304488
#	325537
#
# Disc length: 4566 seconds
#
# Revision: 1
# Processed by: cddbd v1.4PL0 Copyright (c) Steve Scherf et al.
# Submitted via: CDex 1.40Release
#
DISCID=f311d410
DTITLE=Yanni - The Very Best of Yanni
DYEAR=1900
DGENRE=National Folk
TTITLE0=Aria
TTITLE1=Looking Glass
TTITLE2=In the Morning Light
TTITLE3=Marching Season
TTITLE4=Swept Away
TTITLE5=One Man's Dream
TTITLE6=The Mermaid
TTITLE7=To the One Who Knows
TTITLE8=Santorini
TTITLE9=Acroyali
TTITLE10=In the Mirror
TTITLE11=Someday
TTITLE12=Flight of Fantasy
TTITLE13=The End of August
TTITLE14=The Rain Must Fall
TTITLE15=Face in the Photograph
EXTD=ID3G: 82
EXTT0=
EXTT1=
EXTT2=
EXTT3=
EXTT4=
EXTT5=
EXTT6=
EXTT7=
EXTT8=
EXTT9=
EXTT10=
EXTT11=
EXTT12=
EXTT13=
EXTT14=
EXTT15=
PLAYORDER=
